<?xml version="1.0" encoding="utf-8"?>
<!-- Svg Vector Icons : http://www.onlinewebfonts.com/icon -->
<!DOCTYPE svg PUBLIC "-//W3C//DTD SVG 1.1//EN" "http://www.w3.org/Graphics/SVG/1.1/DTD/svg11.dtd">
<svg version="1.1" xmlns="http://www.w3.org/2000/svg" xmlns:xlink="http://www.w3.org/1999/xlink" x="0px" y="0px" viewBox="0 0 1000 1000" enable-background="new 0 0 1000 1000" xml:space="preserve">
<metadata> Svg Vector Icons : http://www.onlinewebfonts.com/icon </metadata>
<g><g><g><path d="M235.8,425.1L458,123.2c0.5,0.1,1.1,0.3,1.6,0.4c9.7,2.4,20.1,5.5,30.8,9.1c21.6,7.3,44.9,17.2,68.4,30.7c23.5,13.5,47.1,30.4,69.2,51c22.1,20.5,42.7,44.6,60.3,71.8c17.6,27.1,32.3,57.1,42.9,88.9c7.7,22.9,13.2,46.8,16.5,71h102c-4.3-36.1-13.2-71.6-26.4-104.9c-15.8-40-37.6-76.7-63.4-108.1c-25.8-31.4-55.5-57.6-86.3-77.8c-30.8-20.3-62.7-34.5-93-43.6c-30.3-9.1-58.9-13.1-84-13.9c-12.5-0.4-24.2,0-34.9,0.8c-2.7,0.2-5.3,0.4-7.8,0.7c-2.6,0.3-5,0.6-7.5,0.9c-2.4,0.3-4.8,0.6-7.1,1l-47.3-28.4l12.1,26L163.8,425.1H235.8z"/><polygon points="888.7,422.9 888.7,479.8 182.3,479.8 163.2,453.9 10,454 62.4,500.8 990,500.1 "/></g><g><path d="M235.8,574.9L458,876.8c0.5-0.1,1.1-0.3,1.6-0.4c9.7-2.4,20.1-5.5,30.8-9.1c21.6-7.3,44.9-17.2,68.4-30.7c23.5-13.5,47.1-30.4,69.2-51c22.1-20.5,42.7-44.6,60.3-71.8c17.6-27.1,32.3-57.1,42.9-88.9c7.7-22.9,13.2-46.8,16.5-71h102c-4.3,36.1-13.2,71.6-26.4,104.9c-15.8,40-37.6,76.7-63.4,108.1c-25.8,31.4-55.5,57.6-86.3,77.8c-30.8,20.3-62.7,34.5-93,43.6c-30.3,9.1-58.9,13.1-84,13.9c-12.5,0.4-24.2,0-34.9-0.8c-2.7-0.2-5.3-0.4-7.8-0.7c-2.6-0.3-5-0.6-7.5-0.9c-2.4-0.3-4.8-0.6-7.1-1l-47.3,28.4l12.1-26L163.8,574.9H235.8z"/><polygon points="888.7,577.1 888.7,520.2 182.3,520.2 163.2,546.1 10,546 62.4,499.2 990,499.9 "/></g></g><g></g><g></g><g></g><g></g><g></g><g></g><g></g><g></g><g></g><g></g><g></g><g></g><g></g><g></g><g></g></g>
</svg>