<?xml version="1.0" encoding="utf-8"?>
<!-- Generator: Adobe Illustrator 19.0.0, SVG Export Plug-In . SVG Version: 6.00 Build 0)  -->
<svg version="1.1" id="Layer_1" xmlns="http://www.w3.org/2000/svg" xmlns:xlink="http://www.w3.org/1999/xlink" x="0px" y="0px"
	 viewBox="0 0 96 96" style="enable-background:new 0 0 96 96;" xml:space="preserve">
<style type="text/css">
	.st0{fill:#333333;}
</style>
<g id="XMLID_1_">
	<path id="XMLID_3_" class="st0" d="M36.2,40.6l-1.1,5.9h25.8l-1.1-5.9c3.3,0,5.9-2.6,5.9-5.9V22.9h-5.9v5.9H51v-5.9H45v5.9h-8.9
		v-5.9h-5.9v11.8C30.3,38,32.9,40.6,36.2,40.6z"/>
	<path id="XMLID_4_" class="st0" d="M15.5,49.5v8.9h3v11.8c0,1.6,1.3,3,3,3h20.7v-5.9c0-3.3,2.6-5.9,5.9-5.9s5.9,2.7,5.9,5.9v5.9
		h20.7c1.6,0,3-1.3,3-3V58.3h3v-8.9H15.5z"/>
</g>
</svg>
