<svg id="Capa_1" enable-background="new 0 0 511.226 511.226" height="512" viewBox="0 0 511.226 511.226" width="512" xmlns="http://www.w3.org/2000/svg"><g><path d="m25.178 195.613-25.178 314.72h147.796l-33.57-314.72z"/><path d="m31.178 120.613-3.6 45h83.448l-4.8-45z"/><path d="m470.156 210.613-80.337 97.121v-97.121h-41.044l-84.685 101.797v-101.797h-41.087l-68.178 82.762 10.372 97.238h46.029v30h-42.829l9.6 90h333.229v-300zm-168.93 210h-60v-30h60zm90 0h-60v-30h60zm90 0h-60v-30h60z"/><path d="m133.196 90.613 10.099 94.679c15.558-1.388 30.38-7.317 42.579-16.962 13.696 7.981 29.403 12.283 45.351 12.283 24.818 0 48.319-10.251 65.181-27.959 10.783 5.236 22.605 7.959 34.819 7.959 17.581 0 34.645-5.858 48.486-16.39 11.564 7.41 25.024 11.39 39.014 11.39 39.977 0 72.5-32.523 72.5-72.5s-32.523-72.5-72.5-72.5c-12.471 0-24.67 3.229-35.428 9.258-14.39-12.363-32.752-19.258-52.072-19.258-17.536 0-34.544 5.82-48.36 16.291-15.044-10.581-32.949-16.291-51.64-16.291-25.879 0-50.145 11.03-67.101 30.027-8.891-3.31-18.349-5.027-27.899-5.027-38.984 0-71.526 28.036-78.569 65z"/></g></svg>